<svg xmlns="http://www.w3.org/2000/svg" width="478" height="383" fill="none" viewBox="0 0 478 383">
  <path stroke="#E5E7EB" d="M0 0h477.656v382.125H0V0Z"/>
  <g clip-path="url(#a)">
    <path fill="#2563EB" d="M127.848 71.648h39.332v71.649H83.067l22.689-56.647a23.76 23.76 0 0 1 22.092-15.002Zm75.156 71.649V71.648h60.603a23.927 23.927 0 0 1 18.658 8.957l50.154 62.692H203.004Zm191.212.746-74.634-93.292c-13.583-17.017-34.182-26.868-55.975-26.868H127.848c-29.331 0-55.677 17.837-66.499 45.004l-31.048 77.694C12.54 153.596 0 170.837 0 191.062v83.59c0 13.211 10.673 23.883 23.883 23.883h24.853c5.672 33.884 35.152 59.707 70.678 59.707 35.526 0 65.006-25.823 70.678-59.707h97.472c5.672 33.884 35.152 59.707 70.678 59.707 35.526 0 65.006-25.823 70.678-59.707h24.853c13.211 0 23.883-10.672 23.883-23.883v-35.824c0-48.661-36.421-88.814-83.44-94.785Zm-69.783 130.609a35.823 35.823 0 0 1 69.728 9.955 35.827 35.827 0 0 1-2.184 13.928 35.825 35.825 0 1 1-67.544-23.883ZM119.414 250.77a35.828 35.828 0 0 1 25.332 10.492 35.828 35.828 0 0 1 0 50.663 35.824 35.824 0 1 1-25.332-61.155Z"/>
  </g>
  <defs>
    <clipPath id="a">
      <path fill="#fff" d="M0 0h477.656v382.125H0V0Z"/>
    </clipPath>
  </defs>
</svg>
